<svg width="20" height="20" viewBox="0 0 20 20" fill="none" xmlns="http://www.w3.org/2000/svg">
<g clip-path="url(#clip0_719_1175)">
<path d="M4.28442 8.43555L2.36578 13.5532V13.5536C2.83529 15.4293 3.86726 17.0874 5.3281 18.3381L7.73538 17.4354C5.17847 15.1453 3.91643 11.7767 4.28442 8.43555Z" fill="#FF99CC"/>
<path d="M1.71623 15.2861L0.245613 19.2074C0.0698429 19.6757 0.528018 20.139 0.999865 19.9616L4.10241 18.7984C3.06177 17.7884 2.25452 16.5847 1.71623 15.2861Z" fill="#FF99CC"/>
<path d="M8.39745 7.95846L6.21048 5.77148C4.4373 9.77132 5.64953 14.3431 8.99507 16.9634L11.3293 16.088C9.27928 13.971 8.17048 11.016 8.39745 7.95846Z" fill="#FF99CC"/>
<path d="M9.5415 9.10254C9.63134 11.5887 10.7141 13.9382 12.546 15.6314H12.5464L14.2572 14.9901C14.6568 14.8401 14.7662 14.3272 14.4658 14.0268L9.5415 9.10254Z" fill="#FF99CC"/>
<path d="M13.8209 10.9428C14.0497 11.1717 14.4207 11.1717 14.6495 10.9428C16.8537 8.73861 19.0001 9.42009 19.0215 9.4272C19.3285 9.52949 19.6603 9.36361 19.7626 9.05663C19.865 8.74974 19.699 8.41784 19.3921 8.31551C19.2765 8.27703 16.5316 7.40357 13.821 10.1143C13.5921 10.343 13.5921 10.7141 13.8209 10.9428Z" fill="#FF99CC"/>
<path d="M10.0923 6.38576C12.8031 3.67538 11.9293 0.930231 11.891 0.814613C11.7887 0.507601 11.4567 0.341986 11.1496 0.444323C10.843 0.546661 10.677 0.878281 10.7794 1.18529C10.7864 1.20678 11.468 3.35313 9.26343 5.5573C9.03606 5.78466 9.03376 6.15538 9.26343 6.38576C9.49346 6.61575 9.8641 6.61395 10.0923 6.38576Z" fill="#FF99CC"/>
<path d="M11.3351 7.62897C11.1063 7.85779 11.1063 8.22874 11.3351 8.45755C11.5618 8.6843 11.9302 8.68727 12.1602 8.46103C12.4629 8.31022 13.4024 8.87589 13.9245 8.35397C14.441 7.83743 13.8922 6.91706 14.0293 6.5945C14.3523 6.45709 15.2723 7.00612 15.7888 6.48967C16.3054 5.97313 15.7566 5.05276 15.8937 4.73016C16.2171 4.59271 17.1366 5.14182 17.6531 4.62532C18.1697 4.10879 17.621 3.18842 17.758 2.86582C18.0796 2.72907 19.0014 3.27693 19.5176 2.76095C20.0394 2.23899 19.4748 1.29783 19.6245 0.996717C19.8499 0.767668 19.8487 0.399292 19.6211 0.171611C19.3923 -0.0572036 19.0213 -0.0572036 18.7925 0.171611C18.3307 0.633419 18.421 1.28537 18.508 1.75148C18.0419 1.66449 17.39 1.57414 16.9282 2.03591C16.4664 2.49772 16.5567 3.14967 16.6437 3.61578C16.1776 3.52883 15.5256 3.4384 15.0638 3.90025C14.602 4.36206 14.6924 5.01401 14.7794 5.48012C14.3132 5.39313 13.6613 5.30274 13.1995 5.76455C12.7377 6.22636 12.8281 6.87831 12.9151 7.34442C12.4489 7.25751 11.7969 7.16716 11.3351 7.62897Z" fill="#FF99CC"/>
<path d="M14.6495 2.65742C14.8783 2.42861 14.8783 2.05765 14.6495 1.82884C14.4207 1.60002 14.0497 1.60002 13.8209 1.82884C13.5921 2.05765 13.5921 2.42861 13.8209 2.65742C14.0497 2.88623 14.4207 2.88623 14.6495 2.65742Z" fill="#FF99CC"/>
<path d="M18.3781 6.97161C18.7017 6.97161 18.964 6.70929 18.964 6.38571C18.964 6.06212 18.7017 5.7998 18.3781 5.7998C18.0546 5.7998 17.7922 6.06212 17.7922 6.38571C17.7922 6.70929 18.0546 6.97161 18.3781 6.97161Z" fill="#FF99CC"/>
<path d="M17.1352 11.7722C16.9064 12.001 16.9064 12.372 17.1352 12.6008C17.364 12.8296 17.735 12.8296 17.9638 12.6008C18.1926 12.372 18.1926 12.001 17.9638 11.7722C17.735 11.5434 17.364 11.5434 17.1352 11.7722Z" fill="#FF99CC"/>
<path d="M8.84931 3.48554C9.07813 3.25673 9.07813 2.88578 8.84931 2.65696C8.6205 2.42815 8.24955 2.42815 8.02073 2.65696C7.79192 2.88574 7.79192 3.25673 8.02073 3.48554C8.24955 3.71436 8.62054 3.71436 8.84931 3.48554Z" fill="#FF99CC"/>
</g>
<defs>
<clipPath id="clip0_719_1175">
<rect width="20" height="20" fill="white"/>
</clipPath>
</defs>
</svg>
