<svg width="20" height="20" viewBox="0 0 20 20" fill="none" xmlns="http://www.w3.org/2000/svg">
<path d="M18.2449 8.30384L10.4446 0.502376C9.98457 0.043469 9.24038 0.0488987 8.78636 0.50179C8.32976 0.959565 8.32976 1.70285 8.78636 2.16004L16.5878 9.96095C17.0449 10.418 17.7879 10.418 18.2449 9.96095C18.7032 9.50267 18.7032 8.76204 18.2449 8.30384Z" fill="#748EFE"/>
<path d="M8.20764 3.23828L8.14893 3.53258C7.73538 5.60125 6.7303 7.56653 5.37088 9.15939L9.61491 13.4034C11.2076 12.0443 13.1458 11.0122 15.2145 10.5981L15.5094 10.5394L8.20764 3.23828Z" fill="#748EFE"/>
<path d="M4.59278 10.0391L1.69227 12.939C1.00692 13.6243 1.00407 14.737 1.69227 15.4252L3.34938 17.0823C4.03474 17.7677 5.14739 17.7705 5.8356 17.0823L8.73584 14.1821L4.59278 10.0391ZM5.00708 14.5967C4.77821 14.8256 4.40739 14.8256 4.17852 14.5967C3.94966 14.3678 3.94966 13.997 4.17852 13.7681L5.00708 12.9396C5.23595 12.7107 5.60677 12.7107 5.83564 12.9396C6.06451 13.1684 6.06451 13.5393 5.83564 13.7681L5.00708 14.5967Z" fill="#748EFE"/>
<path d="M11.1823 17.3937L11.9794 16.5966C12.6676 15.9085 12.6653 14.7958 11.9794 14.111L11.3874 13.5186C11.0601 13.7384 10.7476 13.9772 10.4438 14.232L11.1508 14.9401C11.3792 15.1673 11.3808 15.537 11.1508 15.7681L10.3406 16.5783L9.1499 15.4247L7.49271 17.0819L10.1512 19.6579C10.6049 20.1128 11.3497 20.1154 11.8077 19.6574C12.2649 19.2002 12.2649 18.4569 11.8077 17.9997L11.1823 17.3937Z" fill="#748EFE"/>
<path d="M13.5494 0C13.2255 0 12.9635 0.262071 12.9635 0.585939V1.75782C12.9635 2.08168 13.2255 2.34375 13.5494 2.34375C13.8733 2.34375 14.1353 2.08168 14.1353 1.75782V0.585939C14.1353 0.262071 13.8733 0 13.5494 0Z" fill="#748EFE"/>
<path d="M18.2369 4.6875H17.065C16.7412 4.6875 16.4791 4.94957 16.4791 5.27344C16.4791 5.59731 16.7412 5.85938 17.065 5.85938H18.2369C18.5608 5.85938 18.8228 5.59731 18.8228 5.27344C18.8228 4.94957 18.5608 4.6875 18.2369 4.6875Z" fill="#748EFE"/>
<path d="M17.4793 1.34353C17.2504 1.11466 16.8796 1.11466 16.6507 1.34353L15.4789 2.5154C15.25 2.74427 15.25 3.11509 15.4789 3.34396C15.7077 3.57283 16.0786 3.57287 16.3074 3.34396L17.4793 2.17208C17.7082 1.94321 17.7082 1.57239 17.4793 1.34353Z" fill="#748EFE"/>
</svg>
