<svg width="24" height="24" viewBox="0 0 24 24" fill="none" xmlns="http://www.w3.org/2000/svg">
<path fill-rule="evenodd" clip-rule="evenodd" d="M17 3.12836C17 2.48527 16.4018 2.00936 15.7751 2.15397L3.77514 4.9232C3.32141 5.02791 3 5.43193 3 5.89759V20.9998H2.5C2.22386 20.9998 2 21.2237 2 21.4998C2 21.7759 2.22386 21.9998 2.5 21.9998H3.49803H3.5H3.50197H8V18.9998C8 18.4475 8.44772 17.9998 9 17.9998H11C11.5523 17.9998 12 18.4475 12 18.9998V21.9998H16.498H16.5H16.502H17V3.12836ZM6.5 7.99983C6.22386 7.99983 6 8.22369 6 8.49983V9.49983C6 9.77597 6.22386 9.99983 6.5 9.99983H7.5C7.77614 9.99983 8 9.77597 8 9.49983V8.49983C8 8.22369 7.77614 7.99983 7.5 7.99983H6.5ZM6 11.4998C6 11.2237 6.22386 10.9998 6.5 10.9998H7.5C7.77614 10.9998 8 11.2237 8 11.4998V12.4998C8 12.7759 7.77614 12.9998 7.5 12.9998H6.5C6.22386 12.9998 6 12.7759 6 12.4998V11.4998ZM6.5 13.9998C6.22386 13.9998 6 14.2237 6 14.4998V15.4998C6 15.7759 6.22386 15.9998 6.5 15.9998H7.5C7.77614 15.9998 8 15.7759 8 15.4998V14.4998C8 14.2237 7.77614 13.9998 7.5 13.9998H6.5ZM9 8.49983C9 8.22369 9.22386 7.99983 9.5 7.99983H10.5C10.7761 7.99983 11 8.22369 11 8.49983V9.49983C11 9.77597 10.7761 9.99983 10.5 9.99983H9.5C9.22386 9.99983 9 9.77597 9 9.49983V8.49983ZM9.5 10.9998C9.22386 10.9998 9 11.2237 9 11.4998V12.4998C9 12.7759 9.22386 12.9998 9.5 12.9998H10.5C10.7761 12.9998 11 12.7759 11 12.4998V11.4998C11 11.2237 10.7761 10.9998 10.5 10.9998H9.5ZM9 14.4998C9 14.2237 9.22386 13.9998 9.5 13.9998H10.5C10.7761 13.9998 11 14.2237 11 14.4998V15.4998C11 15.7759 10.7761 15.9998 10.5 15.9998H9.5C9.22386 15.9998 9 15.7759 9 15.4998V14.4998ZM12.5 7.99983C12.2239 7.99983 12 8.22369 12 8.49983V9.49983C12 9.77597 12.2239 9.99983 12.5 9.99983H13.5C13.7761 9.99983 14 9.77597 14 9.49983V8.49983C14 8.22369 13.7761 7.99983 13.5 7.99983H12.5ZM12 11.4998C12 11.2237 12.2239 10.9998 12.5 10.9998H13.5C13.7761 10.9998 14 11.2237 14 11.4998V12.4998C14 12.7759 13.7761 12.9998 13.5 12.9998H12.5C12.2239 12.9998 12 12.7759 12 12.4998V11.4998ZM12.5 13.9998C12.2239 13.9998 12 14.2237 12 14.4998V15.4998C12 15.7759 12.2239 15.9998 12.5 15.9998H13.5C13.7761 15.9998 14 15.7759 14 15.4998V14.4998C14 14.2237 13.7761 13.9998 13.5 13.9998H12.5Z" fill="#13AE85"/>
<path d="M18 5.69043V21.9994H20.4986H20.5H20.5014H21.5C21.7761 21.9994 22 21.7755 22 21.4994C22 21.2233 21.7761 20.9994 21.5 20.9994H21V7.80846C21 7.42969 20.786 7.08342 20.4472 6.91403L18 5.69043Z" fill="#13AE85"/>
<path d="M11 22H9V19H11V22Z" fill="#13AE85"/>
</svg>
