<svg width="20" height="20" viewBox="0 0 20 20" fill="none" xmlns="http://www.w3.org/2000/svg">
<path d="M4.02502 4.63684C4.30255 4.63684 4.52752 4.41186 4.52752 4.13434C4.52752 3.85681 4.30255 3.63184 4.02502 3.63184C3.7475 3.63184 3.52252 3.85681 3.52252 4.13434C3.52252 4.41186 3.7475 4.63684 4.02502 4.63684Z" fill="#FF6333"/>
<path d="M5.79498 4.63684C6.0725 4.63684 6.29748 4.41186 6.29748 4.13434C6.29748 3.85681 6.0725 3.63184 5.79498 3.63184C5.51746 3.63184 5.29248 3.85681 5.29248 4.13434C5.29248 4.41186 5.51746 4.63684 5.79498 4.63684Z" fill="#FF6333"/>
<path d="M7.565 4.63684C7.84252 4.63684 8.0675 4.41186 8.0675 4.13434C8.0675 3.85681 7.84252 3.63184 7.565 3.63184C7.28748 3.63184 7.0625 3.85681 7.0625 4.13434C7.0625 4.41186 7.28748 4.63684 7.565 4.63684Z" fill="#FF6333"/>
<path d="M12.5444 12.62L14.1838 18.0088C14.3425 18.5307 15.0775 18.5419 15.2519 18.0244L16.0194 15.7469C16.0757 15.5807 16.2057 15.4507 16.3719 15.3944L18.6494 14.6269C19.1663 14.4525 19.1557 13.7175 18.6338 13.5588L13.245 11.9194C12.8157 11.7894 12.4144 12.1907 12.5444 12.62Z" fill="#FF6333"/>
<path d="M11.6481 12.8922C11.5081 12.4335 11.5919 11.9491 11.8769 11.5647C12.1594 11.1841 12.6081 10.9566 13.0787 10.9566C13.2269 10.9566 13.3744 10.9785 13.5181 11.0222L18.3631 12.4954V3.91973C18.3631 2.63848 17.3194 1.59473 16.0381 1.59473H3.29375C2.0125 1.59473 0.96875 2.63848 0.96875 3.91973V14.326C0.96875 15.6135 2.0125 16.6572 3.3 16.6572H12.7925L11.6481 12.8922ZM2.09375 5.55723V3.92035C2.09375 3.25848 2.63187 2.72035 3.29375 2.72035H16.0375C16.6994 2.72035 17.2375 3.25848 17.2375 3.92035V5.55723H2.09375Z" fill="#FF6333"/>
</svg>
