<svg width="15" height="17" viewBox="0 0 15 17" fill="none" xmlns="http://www.w3.org/2000/svg">
<path fill-rule="evenodd" clip-rule="evenodd" d="M10.3731 17H2.35714C1.73143 17 1.13229 16.7707 0.69 16.3635C0.247714 15.9555 0 15.402 0 14.8256V2.17442C0 1.598 0.247714 1.04451 0.69 0.636512C1.13229 0.229302 1.73143 0 2.35714 0H9.71571C10.1143 0 10.4957 0.145488 10.7769 0.405628L14.5603 3.89577C14.8414 4.15512 15 4.50698 15 4.87386V9.15549L14.7257 9.1887C14.6451 9.00921 14.5629 8.82656 14.5629 8.82656C14.37 8.39879 13.9586 8.08884 13.4657 7.99949C12.7851 7.87614 12.084 7.87614 11.4034 7.99949C10.9106 8.08884 10.4991 8.39879 10.3063 8.82656L10.1434 9.1887C9.93514 9.1634 9.72257 9.13809 9.72257 9.13809C9.22457 9.078 8.72743 9.25116 8.39743 9.59986C7.94143 10.083 7.59086 10.642 7.36629 11.2485C7.20343 11.6857 7.28914 12.1704 7.59429 12.5373L7.85314 12.8488C7.72543 13.003 7.59429 13.1604 7.59429 13.1604C7.28914 13.5273 7.20343 14.012 7.36629 14.4492C7.59086 15.0557 7.94143 15.6147 8.39743 16.0978C8.72743 16.4465 9.22457 16.6197 9.72257 16.5596L10.1434 16.509C10.224 16.6885 10.3063 16.8711 10.3063 16.8711C10.3269 16.9154 10.3491 16.9581 10.3731 17ZM9.64286 1.05953V4.15116C9.64286 4.58763 10.026 4.94186 10.5 4.94186H13.8514C13.8094 4.85647 13.7503 4.77819 13.6774 4.71019L9.894 1.22005C9.82029 1.15205 9.73543 1.09828 9.64286 1.05953ZM3.21429 5.12451H7.07143C7.42629 5.12451 7.71429 4.85884 7.71429 4.53149C7.71429 4.20414 7.42629 3.93847 7.07143 3.93847H3.21429C2.85943 3.93847 2.57143 4.20414 2.57143 4.53149C2.57143 4.85884 2.85943 5.12451 3.21429 5.12451ZM3.21429 13.4419H6.21429C6.56914 13.4419 6.85714 13.1762 6.85714 12.8488C6.85714 12.5215 6.56914 12.2558 6.21429 12.2558H3.21429C2.85943 12.2558 2.57143 12.5215 2.57143 12.8488C2.57143 13.1762 2.85943 13.4419 3.21429 13.4419ZM3.21429 10.6744H6.21429C6.56914 10.6744 6.85714 10.4087 6.85714 10.0814C6.85714 9.75405 6.56914 9.48837 6.21429 9.48837H3.21429C2.85943 9.48837 2.57143 9.75405 2.57143 10.0814C2.57143 10.4087 2.85943 10.6744 3.21429 10.6744ZM3.21429 7.90698H9.21429C9.56914 7.90698 9.85714 7.6413 9.85714 7.31395C9.85714 6.9866 9.56914 6.72093 9.21429 6.72093H3.21429C2.85943 6.72093 2.57143 6.9866 2.57143 7.31395C2.57143 7.6413 2.85943 7.90698 3.21429 7.90698Z" fill="#FF6333"/>
<path d="M15 9.15549L14.7257 9.1887C14.6451 9.00921 14.5629 8.82656 14.5629 8.82656C14.37 8.39879 13.9586 8.08884 13.4657 7.99949C12.7851 7.87614 12.084 7.87614 11.4034 7.99949C10.9106 8.08884 10.4991 8.39879 10.3063 8.82656L10.1434 9.1887C9.93514 9.1634 9.72257 9.13809 9.72257 9.13809C9.22457 9.078 8.72743 9.25116 8.39743 9.59986C7.94143 10.083 7.59086 10.642 7.36629 11.2485C7.20343 11.6857 7.28914 12.1704 7.59429 12.5373L7.85314 12.8488C7.72543 13.003 7.59429 13.1604 7.59429 13.1604C7.28914 13.5273 7.20343 14.012 7.36629 14.4492C7.59086 15.0557 7.94143 15.6147 8.39743 16.0978C8.72743 16.4465 9.22457 16.6197 9.72257 16.5596L10.1434 16.509C10.224 16.6885 10.3063 16.8711 10.3063 16.8711C10.3269 16.9154 10.3491 16.9581 10.3731 17H12.6488C12.6488 17 13.8613 16.8419 14.3631 16.3635C14.8478 15.9014 15 14.8256 15 14.8256V9.15549Z" fill="#FF6333"/>
</svg>
