<svg width="20" height="20" viewBox="0 0 20 20" fill="none" xmlns="http://www.w3.org/2000/svg">
<path d="M18.5392 9.53347C18.1463 9.30764 17.6783 9.3093 17.2867 9.53764L15 10.8718V15.3781L17.2867 16.7122C17.4837 16.8272 17.7 16.8847 17.9167 16.8847C18.1304 16.8847 18.3442 16.8289 18.5392 16.7168C18.9321 16.491 19.1667 16.086 19.1667 15.6331V10.6181C19.1667 10.1651 18.9321 9.75972 18.5392 9.5343V9.53347Z" fill="#13AE85"/>
<path d="M12.7508 8.86958C13.6092 8.22333 14.1667 7.19875 14.1667 6.04167C14.1667 4.08583 12.5808 2.5 10.625 2.5C8.66918 2.5 7.08334 4.08583 7.08334 6.04167C7.08334 7.12875 7.57418 8.10042 8.34501 8.75H6.07793C6.69459 8.17917 7.08334 7.365 7.08334 6.45833C7.08334 4.7325 5.68418 3.33333 3.95834 3.33333C2.23251 3.33333 0.833344 4.7325 0.833344 6.45833C0.833344 7.47 1.31626 8.36708 2.06209 8.93833C1.33959 9.26583 0.833344 9.99 0.833344 10.8333V15.4167C0.833344 16.5654 1.76793 17.5 2.91668 17.5H12.0833C13.2321 17.5 14.1667 16.5654 14.1667 15.4167V10.8333C14.1667 9.91917 13.5713 9.14958 12.7508 8.86958ZM2.70834 6.45833C2.70834 5.76792 3.26793 5.20833 3.95834 5.20833C4.64876 5.20833 5.20834 5.76792 5.20834 6.45833C5.20834 7.14875 4.64876 7.70833 3.95834 7.70833C3.26793 7.70833 2.70834 7.14875 2.70834 6.45833ZM5.00001 15.4167H3.33334C3.10334 15.4167 2.91668 15.23 2.91668 15C2.91668 14.77 3.10334 14.5833 3.33334 14.5833H5.00001C5.23001 14.5833 5.41668 14.77 5.41668 15C5.41668 15.23 5.23001 15.4167 5.00001 15.4167ZM10.625 7.70833C9.70459 7.70833 8.95834 6.96208 8.95834 6.04167C8.95834 5.12125 9.70459 4.375 10.625 4.375C11.5454 4.375 12.2917 5.12125 12.2917 6.04167C12.2917 6.96208 11.5454 7.70833 10.625 7.70833Z" fill="#13AE85"/>
</svg>
