<svg width="20" height="20" viewBox="0 0 20 20" fill="none" xmlns="http://www.w3.org/2000/svg">
<path d="M7.0303 6.09106C7.0303 7.87894 8.48485 9.30318 10.2424 9.30318C10.9091 9.30318 11.5152 9.12136 12 8.75772C12.0303 8.75772 12.0303 8.72742 12.0606 8.72742C12.9091 8.15166 13.4545 7.18197 13.4545 6.06075C13.4545 4.27288 12 2.84863 10.2424 2.84863C8.48485 2.84863 7.0303 4.30318 7.0303 6.09106Z" fill="#748EFE"/>
<path d="M16.1212 14.8794C16.1212 12.3946 14.5757 10.1824 12.2424 9.36426C11.0303 10.0915 9.51513 10.1218 8.27271 9.36426C5.93938 10.2127 4.39392 12.3946 4.39392 14.8794C4.39392 16.334 7.42422 17.1218 10.2727 17.1218C13.1212 17.1218 16.1212 16.334 16.1212 14.8794Z" fill="#748EFE"/>
<path d="M2.60605 10.6061C2.60605 11.6061 3.48484 12.303 4.36362 12.2121C4.69696 11.4545 5.18181 10.7879 5.78787 10.2121C5.60605 9.51515 4.96968 9 4.24241 9C3.33332 9 2.60605 9.72727 2.60605 10.6061Z" fill="#748EFE"/>
<path d="M0.666656 14.9393C0.666656 15.0908 0.757566 15.2423 0.909081 15.3635C1.48484 15.8484 2.84847 16.0908 4.21211 15.9999C3.48484 15.4545 3.30302 14.8787 3.30302 14.4242C3.30302 13.6969 3.42423 13.0302 3.63635 12.3635C3.30302 12.3332 2.96969 12.2423 2.66666 12.0908C1.42423 12.5454 0.666656 13.6666 0.666656 14.9393Z" fill="#748EFE"/>
<path d="M19.3333 15.3944C19.3333 14.1217 18.5454 13.0004 17.3636 12.5459C17.0606 12.7277 16.7273 12.8186 16.3939 12.8186C16.6061 13.455 16.7273 14.152 16.7273 14.8792C16.7273 15.5156 16.3939 16.0307 15.8182 16.455C16.9394 16.5156 19.3333 16.2732 19.3333 15.3944Z" fill="#748EFE"/>
<path d="M16.303 9C15.5454 9 14.9394 9.48485 14.7576 10.2121C15.3636 10.7879 15.8485 11.4545 16.1818 12.2424C17.0909 12.3333 17.9091 11.6061 17.9091 10.6364C17.9091 9.72727 17.1818 9 16.303 9Z" fill="#748EFE"/>
</svg>
