<svg width="20" height="20" viewBox="0 0 20 20" fill="none" xmlns="http://www.w3.org/2000/svg">
<path d="M13.0872 7.73551C14.8609 7.73551 16.3041 6.29238 16.3041 4.51863C16.3041 2.74488 14.8609 1.30176 13.0872 1.30176C11.3134 1.30176 9.8703 2.74488 9.8703 4.51863C9.8703 6.29238 11.3134 7.73551 13.0872 7.73551Z" fill="#748EFE"/>
<path d="M14.1563 9.44531H12.1125C10.7259 9.44531 9.44126 10.0575 8.57376 11.1078H11.7184C11.8641 11.1078 11.9903 11.2084 12.0231 11.35L13.1291 16.1303H15.0903C15.4231 16.1303 15.6944 15.8406 15.6944 15.4847V13.9884C15.6944 13.8159 15.8344 13.6759 16.0069 13.6759C16.1794 13.6759 16.3194 13.8159 16.3194 13.9884V15.4847C16.3194 16.1853 15.7681 16.7553 15.0903 16.7553H13.2738L13.7234 18.6984H16.2756C17.64 18.6984 18.7497 17.5884 18.7497 16.2244V14.0391C18.7497 11.5062 16.6894 9.44531 14.1563 9.44531Z" fill="#748EFE"/>
<path d="M7.96249 11.7324H1.32999L2.94217 18.698H13.0819L11.47 11.7324H7.96249Z" fill="#748EFE"/>
</svg>
