<svg width="20" height="20" viewBox="0 0 20 20" fill="none" xmlns="http://www.w3.org/2000/svg">
<path d="M7.03033 6.09106C7.03033 7.87894 8.48488 9.30318 10.2425 9.30318C10.9091 9.30318 11.5152 9.12136 12 8.75772C12.0303 8.75772 12.0303 8.72742 12.0606 8.72742C12.9091 8.15166 13.4546 7.18197 13.4546 6.06075C13.4546 4.27288 12 2.84863 10.2425 2.84863C8.48488 2.84863 7.03033 4.30318 7.03033 6.09106Z" fill="#FF99CC"/>
<path d="M16.1213 14.8794C16.1213 12.3946 14.5758 10.1824 12.2425 9.36426C11.0303 10.0915 9.51519 10.1218 8.27277 9.36426C5.93944 10.2127 4.39398 12.3946 4.39398 14.8794C4.39398 16.334 7.42429 17.1218 10.2728 17.1218C13.1213 17.1218 16.1213 16.334 16.1213 14.8794Z" fill="#FF99CC"/>
<path d="M2.60608 10.6061C2.60608 11.6061 3.48487 12.303 4.36365 12.2121C4.69699 11.4545 5.18184 10.7879 5.7879 10.2121C5.60608 9.51515 4.96972 9 4.24244 9C3.33335 9 2.60608 9.72727 2.60608 10.6061Z" fill="#FF99CC"/>
<path d="M0.666687 14.9393C0.666687 15.0908 0.757596 15.2423 0.909111 15.3635C1.48487 15.8484 2.84851 16.0908 4.21214 15.9999C3.48487 15.4545 3.30305 14.8787 3.30305 14.4242C3.30305 13.6969 3.42426 13.0302 3.63638 12.3635C3.30305 12.3332 2.96972 12.2423 2.66669 12.0908C1.42426 12.5454 0.666687 13.6666 0.666687 14.9393Z" fill="#FF99CC"/>
<path d="M19.3333 15.3944C19.3333 14.1217 18.5454 13.0004 17.3636 12.5459C17.0606 12.7277 16.7273 12.8186 16.3939 12.8186C16.6061 13.455 16.7273 14.152 16.7273 14.8792C16.7273 15.5156 16.3939 16.0307 15.8182 16.455C16.9394 16.5156 19.3333 16.2732 19.3333 15.3944Z" fill="#FF99CC"/>
<path d="M16.303 9C15.5454 9 14.9394 9.48485 14.7576 10.2121C15.3636 10.7879 15.8485 11.4545 16.1818 12.2424C17.0909 12.3333 17.9091 11.6061 17.9091 10.6364C17.9091 9.72727 17.1818 9 16.303 9Z" fill="#FF99CC"/>
</svg>
