<svg width="20" height="20" viewBox="0 0 20 20" fill="none" xmlns="http://www.w3.org/2000/svg">
<path fill-rule="evenodd" clip-rule="evenodd" d="M12.3731 19H4.35714C3.73143 19 3.13229 18.7707 2.69 18.3635C2.24771 17.9555 2 17.402 2 16.8256V4.17442C2 3.598 2.24771 3.04451 2.69 2.63651C3.13229 2.2293 3.73143 2 4.35714 2H11.7157C12.1143 2 12.4957 2.14549 12.7769 2.40563L16.5603 5.89577C16.8414 6.15512 17 6.50698 17 6.87386V11.1555L16.7257 11.1887C16.6451 11.0092 16.5629 10.8266 16.5629 10.8266C16.37 10.3988 15.9586 10.0888 15.4657 9.99949C14.7851 9.87614 14.084 9.87614 13.4034 9.99949C12.9106 10.0888 12.4991 10.3988 12.3063 10.8266L12.1434 11.1887C11.9351 11.1634 11.7226 11.1381 11.7226 11.1381C11.2246 11.078 10.7274 11.2512 10.3974 11.5999C9.94143 12.083 9.59086 12.642 9.36629 13.2485C9.20343 13.6857 9.28914 14.1704 9.59429 14.5373L9.85314 14.8488C9.72543 15.003 9.59429 15.1604 9.59429 15.1604C9.28914 15.5273 9.20343 16.012 9.36629 16.4492C9.59086 17.0557 9.94143 17.6147 10.3974 18.0978C10.7274 18.4465 11.2246 18.6197 11.7226 18.5596L12.1434 18.509C12.224 18.6885 12.3063 18.8711 12.3063 18.8711C12.3269 18.9154 12.3491 18.9581 12.3731 19ZM11.6429 3.05953V6.15116C11.6429 6.58763 12.026 6.94186 12.5 6.94186H15.8514C15.8094 6.85647 15.7503 6.77819 15.6774 6.71019L11.894 3.22005C11.8203 3.15205 11.7354 3.09828 11.6429 3.05953ZM5.21429 7.12451H9.07143C9.42629 7.12451 9.71429 6.85884 9.71429 6.53149C9.71429 6.20414 9.42629 5.93847 9.07143 5.93847H5.21429C4.85943 5.93847 4.57143 6.20414 4.57143 6.53149C4.57143 6.85884 4.85943 7.12451 5.21429 7.12451ZM5.21429 15.4419H8.21429C8.56914 15.4419 8.85714 15.1762 8.85714 14.8488C8.85714 14.5215 8.56914 14.2558 8.21429 14.2558H5.21429C4.85943 14.2558 4.57143 14.5215 4.57143 14.8488C4.57143 15.1762 4.85943 15.4419 5.21429 15.4419ZM5.21429 12.6744H8.21429C8.56914 12.6744 8.85714 12.4087 8.85714 12.0814C8.85714 11.754 8.56914 11.4884 8.21429 11.4884H5.21429C4.85943 11.4884 4.57143 11.754 4.57143 12.0814C4.57143 12.4087 4.85943 12.6744 5.21429 12.6744ZM5.21429 9.90698H11.2143C11.5691 9.90698 11.8571 9.6413 11.8571 9.31395C11.8571 8.9866 11.5691 8.72093 11.2143 8.72093H5.21429C4.85943 8.72093 4.57143 8.9866 4.57143 9.31395C4.57143 9.6413 4.85943 9.90698 5.21429 9.90698Z" fill="#FF6333"/>
<path d="M17 11.1555L16.7257 11.1887C16.6451 11.0092 16.5629 10.8266 16.5629 10.8266C16.37 10.3988 15.9586 10.0888 15.4657 9.99949C14.7851 9.87614 14.084 9.87614 13.4034 9.99949C12.9106 10.0888 12.4991 10.3988 12.3063 10.8266L12.1434 11.1887C11.9351 11.1634 11.7226 11.1381 11.7226 11.1381C11.2246 11.078 10.7274 11.2512 10.3974 11.5999C9.94143 12.083 9.59086 12.642 9.36629 13.2485C9.20343 13.6857 9.28914 14.1704 9.59429 14.5373L9.85314 14.8488C9.72543 15.003 9.59429 15.1604 9.59429 15.1604C9.28914 15.5273 9.20343 16.012 9.36629 16.4492C9.59086 17.0557 9.94143 17.6147 10.3974 18.0978C10.7274 18.4465 11.2246 18.6197 11.7226 18.5596L12.1434 18.509C12.224 18.6885 12.3063 18.8711 12.3063 18.8711C12.3269 18.9154 12.3491 18.9581 12.3731 19H14.6488C14.6488 19 15.8613 18.8419 16.3631 18.3635C16.8478 17.9014 17 16.8256 17 16.8256V11.1555Z" fill="#FF6333"/>
</svg>
