<svg width="20" height="20" viewBox="0 0 20 20" fill="none" xmlns="http://www.w3.org/2000/svg">
<path d="M10 1.24902C7.93631 1.24902 6.24991 2.93556 6.24991 4.99922C6.24991 7.06289 7.93631 8.74871 10 8.74871C12.0637 8.74871 13.7501 7.06289 13.7501 4.99922C13.7501 2.93556 12.0637 1.24902 10 1.24902ZM8.74966 9.99916C5.64419 9.99916 3.125 12.5188 3.125 15.6242V18.7491H16.875V15.6242C16.875 12.5188 14.3553 9.99916 11.2499 9.99916C10.8434 9.9993 10.5452 10.3812 10.6436 10.7756L11.8077 15.4322L10 17.2399L8.19186 15.4322L9.35638 10.7756C9.45489 10.381 9.15635 9.99899 8.74966 9.99916Z" fill="#F3CB34"/>
</svg>
